<?xml version="1.0" encoding="utf-8"?>
<!-- Generator: Adobe Illustrator 16.0.0, SVG Export Plug-In . SVG Version: 6.00 Build 0)  -->
<!DOCTYPE svg PUBLIC "-//W3C//DTD SVG 1.1//EN" "http://www.w3.org/Graphics/SVG/1.1/DTD/svg11.dtd">
<svg version="1.1" id="Layer_1" xmlns="http://www.w3.org/2000/svg" xmlns:xlink="http://www.w3.org/1999/xlink" x="0px" y="0px"
	 width="1920px" height="2317.5px" viewBox="0 0 1920 2317.5" enable-background="new 0 0 1920 2317.5" xml:space="preserve">
<title>download</title>
<desc>Created with Sketch.</desc>
<g id="Page-1">
	<g id="download">
		
			<g id="Group" transform="translate(1423.500000, 216.397000) scale(-1, 1) translate(-1423.500000, -216.397000) translate(1181.000000, 78.897000)">
			<polygon id="Shape" fill="#EFF9FF" points="462.147,126.482 462.147,93.973 442.848,93.973 442.848,126.482 419.995,126.482 
				419.995,76.194 403.236,76.194 403.236,38.605 389.524,38.605 389.524,0 361.084,0 361.084,38.605 347.373,38.605 
				347.373,76.194 331.12,76.194 331.12,30.986 321.979,30.986 321.979,8.127 316.393,8.127 316.393,30.986 283.89,30.986 
				283.89,175.246 259.01,175.246 259.01,160.007 243.77,160.007 243.77,175.246 218.885,175.246 218.885,126.482 174.194,126.482 
				174.194,93.973 154.895,93.973 154.895,126.482 153.885,126.482 153.885,188.961 133.565,188.961 133.565,152.388 
				109.188,152.388 109.188,188.961 88.875,188.961 88.875,76.194 73.135,76.194 73.135,38.605 15.236,38.605 15.236,76.194 
				0,76.194 0,274.806 88.875,274.806 153.885,274.806 218.885,274.806 283.89,274.806 331.12,274.806 419.995,274.806 485,274.806 
				485,126.482 			"/>
			<polygon id="Rectangle-path" opacity="0.4" fill="#FFFFFF" enable-background="new    " points="9.649,100.068 30.979,100.068 
				30.979,100.068 			"/>
			<polygon id="Rectangle-path_1_" opacity="0.4" fill="#FFFFFF" enable-background="new    " points="57.387,100.069 
				78.719,100.069 78.719,100.069 			"/>
			<polygon id="Rectangle-path_2_" opacity="0.4" fill="#FFFFFF" enable-background="new    " points="9.649,123.942 
				30.979,123.942 30.979,123.942 			"/>
			<polygon id="Rectangle-path_3_" opacity="0.4" fill="#FFFFFF" enable-background="new    " points="57.387,123.943 
				78.719,123.943 78.719,123.943 			"/>
			<polygon id="Rectangle-path_4_" opacity="0.4" fill="#FFFFFF" enable-background="new    " points="9.649,147.816 
				30.979,147.816 30.979,147.816 			"/>
			<polygon id="Rectangle-path_5_" opacity="0.4" fill="#FFFFFF" enable-background="new    " points="57.387,147.815 
				78.719,147.815 78.719,147.815 			"/>
			<polygon id="Rectangle-path_6_" opacity="0.4" fill="#FFFFFF" enable-background="new    " points="9.649,171.69 30.979,171.69 
				30.979,171.69 			"/>
			<polygon id="Rectangle-path_7_" opacity="0.4" fill="#FFFFFF" enable-background="new    " points="57.387,171.691 
				78.719,171.691 78.719,171.691 			"/>
			<polygon id="Rectangle-path_8_" opacity="0.4" fill="#FFFFFF" enable-background="new    " points="9.649,195.564 
				30.979,195.564 30.979,195.564 			"/>
			<polygon id="Rectangle-path_9_" opacity="0.4" fill="#FFFFFF" enable-background="new    " points="57.387,195.565 
				78.719,195.565 78.719,195.565 			"/>
			<polygon id="Rectangle-path_10_" opacity="0.4" fill="#FFFFFF" enable-background="new    " points="9.649,219.438 
				30.979,219.438 30.979,219.438 			"/>
			<polygon id="Rectangle-path_11_" opacity="0.4" fill="#FFFFFF" enable-background="new    " points="57.387,219.439 
				78.719,219.439 78.719,219.439 			"/>
			<polygon id="Rectangle-path_12_" opacity="0.4" fill="#FFFFFF" enable-background="new    " points="9.649,243.313 
				30.979,243.313 30.979,243.313 			"/>
			<polygon id="Rectangle-path_13_" opacity="0.4" fill="#FFFFFF" enable-background="new    " points="57.387,243.312 
				78.719,243.312 78.719,243.312 			"/>
			<polygon id="Rectangle-path_14_" opacity="0.4" fill="#FFFFFF" enable-background="new    " points="96.492,207.248 
				146.263,207.248 146.263,207.248 			"/>
			<polygon id="Rectangle-path_15_" opacity="0.4" fill="#FFFFFF" enable-background="new    " points="96.492,216.391 
				146.263,216.391 146.263,216.391 			"/>
			<polygon id="Rectangle-path_16_" opacity="0.4" fill="#FFFFFF" enable-background="new    " points="96.492,225.534 
				146.263,225.534 146.263,225.534 			"/>
			<polygon id="Rectangle-path_17_" opacity="0.4" fill="#FFFFFF" enable-background="new    " points="226.508,210.296 
				276.274,210.296 276.274,210.296 			"/>
			<polygon id="Rectangle-path_18_" opacity="0.4" fill="#FFFFFF" enable-background="new    " points="226.508,219.439 
				276.274,219.439 276.274,219.439 			"/>
			<polygon id="Rectangle-path_19_" opacity="0.4" fill="#FFFFFF" enable-background="new    " points="226.508,228.582 
				276.274,228.582 276.274,228.582 			"/>
			<polygon id="Rectangle-path_20_" opacity="0.4" fill="#FFFFFF" enable-background="new    " points="96.492,234.678 
				146.263,234.678 146.263,234.678 			"/>
			<polygon id="Rectangle-path_21_" opacity="0.4" fill="#FFFFFF" enable-background="new    " points="96.492,243.821 
				146.263,243.821 146.263,243.821 			"/>
			<polygon id="Rectangle-path_22_" opacity="0.4" fill="#FFFFFF" enable-background="new    " points="96.492,252.964 
				146.263,252.964 146.263,252.964 			"/>
			<polygon id="Rectangle-path_23_" opacity="0.4" fill="#FFFFFF" enable-background="new    " points="164.55,155.944 
				178.26,155.944 178.26,155.944 			"/>
			<polygon id="Rectangle-path_24_" opacity="0.4" fill="#FFFFFF" enable-background="new    " points="194.51,155.943 
				208.221,155.943 208.221,155.943 			"/>
			<polygon id="Rectangle-path_25_" opacity="0.4" fill="#FFFFFF" enable-background="new    " points="164.55,184.39 
				178.26,184.39 178.26,184.39 			"/>
			<polygon id="Rectangle-path_26_" opacity="0.4" fill="#FFFFFF" enable-background="new    " points="194.51,184.389 
				208.221,184.389 208.221,184.389 			"/>
			<polygon id="Rectangle-path_27_" opacity="0.4" fill="#FFFFFF" enable-background="new    " points="164.55,212.835 
				178.26,212.835 178.26,212.835 			"/>
			<polygon id="Rectangle-path_28_" opacity="0.4" fill="#FFFFFF" enable-background="new    " points="194.51,212.836 
				208.221,212.836 208.221,212.836 			"/>
			<polygon id="Rectangle-path_29_" opacity="0.4" fill="#FFFFFF" enable-background="new    " points="164.55,241.281 
				178.26,241.281 178.26,241.281 			"/>
			<polygon id="Rectangle-path_30_" opacity="0.4" fill="#FFFFFF" enable-background="new    " points="194.51,241.281 
				208.221,241.281 208.221,241.281 			"/>
			<polygon id="Rectangle-path_31_" opacity="0.4" fill="#FFFFFF" enable-background="new    " points="283.89,66.035 
				302.177,66.035 302.177,66.035 			"/>
			<polygon id="Rectangle-path_32_" opacity="0.4" fill="#FFFFFF" enable-background="new    " points="283.89,99.56 302.177,99.56 
				302.177,99.56 			"/>
			<polygon id="Rectangle-path_33_" opacity="0.4" fill="#FFFFFF" enable-background="new    " points="283.89,133.085 
				302.177,133.085 302.177,133.085 			"/>
			<polygon id="Rectangle-path_34_" opacity="0.4" fill="#FFFFFF" enable-background="new    " points="283.89,166.611 
				302.177,166.611 302.177,166.611 			"/>
			<polygon id="Rectangle-path_35_" opacity="0.4" fill="#FFFFFF" enable-background="new    " points="283.89,200.136 
				302.177,200.136 302.177,200.136 			"/>
			<polygon id="Rectangle-path_36_" opacity="0.4" fill="#FFFFFF" enable-background="new    " points="283.89,233.661 
				302.177,233.661 302.177,233.661 			"/>
			<polygon id="Rectangle-path_37_" opacity="0.4" fill="#FFFFFF" enable-background="new    " points="341.531,110.227 
				409.584,110.227 409.584,110.227 			"/>
			<polygon id="Rectangle-path_38_" opacity="0.4" fill="#FFFFFF" enable-background="new    " points="341.785,152.895 
				409.842,152.895 409.842,152.895 			"/>
			<polygon id="Rectangle-path_39_" opacity="0.4" fill="#FFFFFF" enable-background="new    " points="342.039,195.564 
				410.094,195.564 410.094,195.564 			"/>
			<polygon id="Rectangle-path_40_" opacity="0.4" fill="#FFFFFF" enable-background="new    " points="342.293,238.233 
				410.346,238.233 410.346,238.233 			"/>
			<polygon id="Rectangle-path_41_" opacity="0.4" fill="#FFFFFF" enable-background="new    " points="15.236,68.574 
				24.377,68.574 24.377,68.574 			"/>
			<polygon id="Rectangle-path_42_" opacity="0.4" fill="#FFFFFF" enable-background="new    " points="462.147,167.627 
				485,167.627 485,167.627 			"/>
			<polygon id="Rectangle-path_43_" opacity="0.4" fill="#FFFFFF" enable-background="new    " points="462.147,210.296 
				485,210.296 485,210.296 			"/>
			<polygon id="Rectangle-path_44_" opacity="0.4" fill="#FFFFFF" enable-background="new    " points="462.147,252.964 
				485,252.964 485,252.964 			"/>
			<path id="Shape_1_" opacity="0.1" enable-background="new    " d="M187.205,157.046c0,0-1.335,6.466-1.6,9.905"/>
		</g>
		<g id="Group_1_" transform="translate(1105.000000, 121.000000)">
			<polygon id="Shape_2_" fill="#D7EFFF" points="565.058,154.647 565.058,114.898 541.461,114.898 541.461,154.647 
				513.519,154.647 513.519,93.161 493.028,93.161 493.028,47.201 476.263,47.201 476.263,0 441.49,0 441.49,47.201 424.725,47.201 
				424.725,93.161 404.854,93.161 404.854,37.885 393.677,37.885 393.677,9.937 386.847,9.937 386.847,37.885 347.107,37.885 
				347.107,214.27 316.681,214.27 316.681,195.638 298.052,195.638 298.052,214.27 267.625,214.27 267.625,154.647 212.983,154.647 
				212.983,114.898 189.387,114.898 189.387,154.647 188.146,154.647 188.146,231.039 163.308,231.039 163.308,186.322 
				133.503,186.322 133.503,231.039 108.664,231.039 108.664,93.161 89.416,93.161 89.416,47.201 18.628,47.201 18.628,93.161 
				0,93.161 0,336 108.664,336 188.146,336 267.625,336 347.107,336 404.854,336 513.519,336 593,336 593,154.647 			"/>
			
				<rect id="Rectangle-path_45_" x="11.798" y="107.445" opacity="0.4" fill="#FFFFFF" enable-background="new    " width="26.08" height="14.906"/>
			
				<rect id="Rectangle-path_46_" x="70.166" y="107.445" opacity="0.4" fill="#FFFFFF" enable-background="new    " width="26.075" height="14.906"/>
			
				<rect id="Rectangle-path_47_" x="11.798" y="136.636" opacity="0.4" fill="#FFFFFF" enable-background="new    " width="26.08" height="14.901"/>
			
				<rect id="Rectangle-path_48_" x="70.166" y="136.636" opacity="0.4" fill="#FFFFFF" enable-background="new    " width="26.075" height="14.901"/>
			
				<rect id="Rectangle-path_49_" x="11.798" y="165.826" opacity="0.4" fill="#FFFFFF" enable-background="new    " width="26.08" height="14.906"/>
			
				<rect id="Rectangle-path_50_" x="70.166" y="165.828" opacity="0.4" fill="#FFFFFF" enable-background="new    " width="26.075" height="14.906"/>
			
				<rect id="Rectangle-path_51_" x="11.798" y="195.017" opacity="0.4" fill="#FFFFFF" enable-background="new    " width="26.08" height="14.901"/>
			
				<rect id="Rectangle-path_52_" x="70.166" y="195.017" opacity="0.4" fill="#FFFFFF" enable-background="new    " width="26.075" height="14.901"/>
			
				<rect id="Rectangle-path_53_" x="11.798" y="224.207" opacity="0.4" fill="#FFFFFF" enable-background="new    " width="26.08" height="14.906"/>
			
				<rect id="Rectangle-path_54_" x="70.166" y="224.207" opacity="0.4" fill="#FFFFFF" enable-background="new    " width="26.075" height="14.906"/>
			
				<rect id="Rectangle-path_55_" x="11.798" y="253.397" opacity="0.4" fill="#FFFFFF" enable-background="new    " width="26.08" height="14.906"/>
			
				<rect id="Rectangle-path_56_" x="70.166" y="253.397" opacity="0.4" fill="#FFFFFF" enable-background="new    " width="26.075" height="14.906"/>
			
				<rect id="Rectangle-path_57_" x="11.798" y="282.593" opacity="0.4" fill="#FFFFFF" enable-background="new    " width="26.08" height="14.901"/>
			
				<rect id="Rectangle-path_58_" x="70.166" y="282.591" opacity="0.4" fill="#FFFFFF" enable-background="new    " width="26.075" height="14.901"/>
			
				<rect id="Rectangle-path_59_" x="117.979" y="245.945" opacity="0.4" fill="#FFFFFF" enable-background="new    " width="60.852" height="7.453"/>
			
				<rect id="Rectangle-path_60_" x="117.979" y="257.124" opacity="0.4" fill="#FFFFFF" enable-background="new    " width="60.852" height="7.453"/>
			
				<rect id="Rectangle-path_61_" x="117.979" y="268.303" opacity="0.4" fill="#FFFFFF" enable-background="new    " width="60.852" height="7.453"/>
			
				<rect id="Rectangle-path_62_" x="276.94" y="249.671" opacity="0.4" fill="#FFFFFF" enable-background="new    " width="60.852" height="7.453"/>
			
				<rect id="Rectangle-path_63_" x="276.94" y="260.85" opacity="0.4" fill="#FFFFFF" enable-background="new    " width="60.852" height="7.453"/>
			
				<rect id="Rectangle-path_64_" x="276.94" y="272.03" opacity="0.4" fill="#FFFFFF" enable-background="new    " width="60.852" height="7.453"/>
			
				<rect id="Rectangle-path_65_" x="117.979" y="279.482" opacity="0.4" fill="#FFFFFF" enable-background="new    " width="60.852" height="7.453"/>
			
				<rect id="Rectangle-path_66_" x="117.979" y="290.662" opacity="0.4" fill="#FFFFFF" enable-background="new    " width="60.852" height="7.453"/>
			
				<rect id="Rectangle-path_67_" x="117.979" y="301.844" opacity="0.4" fill="#FFFFFF" enable-background="new    " width="60.852" height="7.453"/>
			
				<rect id="Rectangle-path_68_" x="201.185" y="168.932" opacity="0.4" fill="#FFFFFF" enable-background="new    " width="16.765" height="21.733"/>
			
				<rect id="Rectangle-path_69_" x="237.822" y="168.93" opacity="0.4" fill="#FFFFFF" enable-background="new    " width="16.769" height="21.733"/>
			
				<rect id="Rectangle-path_70_" x="201.185" y="203.712" opacity="0.4" fill="#FFFFFF" enable-background="new    " width="16.765" height="21.738"/>
			
				<rect id="Rectangle-path_71_" x="237.822" y="203.71" opacity="0.4" fill="#FFFFFF" enable-background="new    " width="16.769" height="21.738"/>
			
				<rect id="Rectangle-path_72_" x="201.185" y="238.492" opacity="0.4" fill="#FFFFFF" enable-background="new    " width="16.765" height="21.738"/>
			
				<rect id="Rectangle-path_73_" x="237.822" y="238.49" opacity="0.4" fill="#FFFFFF" enable-background="new    " width="16.769" height="21.738"/>
			
				<rect id="Rectangle-path_74_" x="201.185" y="273.272" opacity="0.4" fill="#FFFFFF" enable-background="new    " width="16.765" height="21.738"/>
			
				<rect id="Rectangle-path_75_" x="237.822" y="273.27" opacity="0.4" fill="#FFFFFF" enable-background="new    " width="16.769" height="21.738"/>
			
				<rect id="Rectangle-path_76_" x="347.107" y="52.17" opacity="0.4" fill="#FFFFFF" enable-background="new    " width="22.354" height="28.569"/>
			
				<rect id="Rectangle-path_77_" x="347.107" y="93.161" opacity="0.4" fill="#FFFFFF" enable-background="new    " width="22.354" height="28.569"/>
			
				<rect id="Rectangle-path_78_" x="347.107" y="134.152" opacity="0.4" fill="#FFFFFF" enable-background="new    " width="22.354" height="28.569"/>
			
				<rect id="Rectangle-path_79_" x="347.107" y="175.142" opacity="0.4" fill="#FFFFFF" enable-background="new    " width="22.354" height="28.564"/>
			
				<rect id="Rectangle-path_80_" x="347.107" y="216.133" opacity="0.4" fill="#FFFFFF" enable-background="new    " width="22.354" height="28.569"/>
			
				<rect id="Rectangle-path_81_" x="347.107" y="257.124" opacity="0.4" fill="#FFFFFF" enable-background="new    " width="22.354" height="28.569"/>
			
				<rect id="Rectangle-path_82_" x="417.584" y="110.551" opacity="0.4" fill="#FFFFFF" enable-background="new    " width="83.205" height="24.227"/>
			
				<rect id="Rectangle-path_83_" x="417.894" y="162.721" opacity="0.4" fill="#FFFFFF" enable-background="new    " width="83.206" height="24.222"/>
			
				<rect id="Rectangle-path_84_" x="418.2" y="214.891" opacity="0.4" fill="#FFFFFF" enable-background="new    " width="83.206" height="24.222"/>
			
				<rect id="Rectangle-path_85_" x="418.515" y="267.061" opacity="0.4" fill="#FFFFFF" enable-background="new    " width="83.206" height="24.222"/>
			
				<rect id="Rectangle-path_86_" x="18.628" y="60.244" opacity="0.4" fill="#FFFFFF" enable-background="new    " width="11.177" height="23.604"/>
			
				<rect id="Rectangle-path_87_" x="565.058" y="168.932" opacity="0.4" fill="#FFFFFF" enable-background="new    " width="27.942" height="36.021"/>
			
				<rect id="Rectangle-path_88_" x="565.058" y="221.102" opacity="0.4" fill="#FFFFFF" enable-background="new    " width="27.942" height="36.021"/>
			
				<rect id="Rectangle-path_89_" x="565.058" y="273.272" opacity="0.4" fill="#FFFFFF" enable-background="new    " width="27.942" height="36.022"/>
			<path id="Shape_3_" opacity="0.1" enable-background="new    " d="M228.892,192.017c0,0-1.634,7.902-1.956,12.106"/>
		</g>
		<path id="Shape_4_" fill="#E3F4FF" d="M0,464.174c130.485,49.839,297.283,74.759,500.383,74.759
			c304.646,0,552.813-97.205,854.328-129.836c201.007-21.758,389.437-11.516,565.289,30.727V644H0.998L0,464.174z"/>
		
			<linearGradient id="Shape_16_" gradientUnits="userSpaceOnUse" x1="4046.7825" y1="875.8943" x2="4047.0652" y2="875.1442" gradientTransform="matrix(71 0 0 -39 -286406.375 34569.3359)">
			<stop  offset="0" style="stop-color:#3EE97A"/>
			<stop  offset="1" style="stop-color:#25D5FA"/>
		</linearGradient>
		<path id="Shape_5_" fill="url(#Shape_16_)" d="M945.994,413.092c1.018-0.391,2.119-0.47,3.182-0.229
			c6.15,0.69,9.922,5.651,11.479,11.272c2.14,7.688-6.135,15.764-12.84,17.704c-6.215,1.791-13.759,1.001-20.193,0.938
			c-6.9-0.07-14.286-0.54-20.979-2.771c-1.591-0.524-3.146-1.159-4.646-1.9c-7.334-3.641-14.537-12.523-11.119-21.165
			c3.575-9.002,16.146-13.113,25.037-12.934c2.979-0.044,5.865,0.982,8.146,2.897C924.057,406.907,930.012,421.53,945.994,413.092z"
			/>
		<path id="Shape_6_" fill="none" stroke="#5D5C5B" stroke-width="2" d="M927,440v48 M908.968,424
			c-3.901,3.351-5.692,8.486-4.698,13.484c0.994,4.997,4.621,9.094,9.516,10.745c4.896,1.652,10.313,0.608,14.219-2.737"/>
		
			<linearGradient id="Shape_17_" gradientUnits="userSpaceOnUse" x1="4035.0862" y1="846.0271" x2="4036.02" y2="845.7888" gradientTransform="matrix(57 0 0 -101 -228924.3906 85782.8438)">
			<stop  offset="0" style="stop-color:#3EE97A"/>
			<stop  offset="1" style="stop-color:#25D5FA"/>
		</linearGradient>
		<path id="Shape_7_" fill="url(#Shape_17_)" d="M1134,370.513c0,14.914-12.925,27.482-28.5,27.482
			c-15.58,0-28.5-12.571-28.5-27.482c0-5.55,2-10.2,5-14.479v-34.954c0-13.729,11.485-25.021,25.188-24.021
			c12.271,0.88,21.784,11.088,21.813,23.398v35.574C1132,360.313,1134,364.968,1134,370.513z"/>
		<path id="Shape_8_" fill="none" stroke="#5D5C5B" stroke-width="2" d="M1106,395v59 M1738,383v27"/>
		
			<linearGradient id="Shape_18_" gradientUnits="userSpaceOnUse" x1="3986.9524" y1="862.2585" x2="3987.8892" y2="862.0112" gradientTransform="matrix(31 0 0 -54 -121874.3828 46911.5781)">
			<stop  offset="0" style="stop-color:#3EE97A"/>
			<stop  offset="1" style="stop-color:#25D5FA"/>
		</linearGradient>
		<path id="Shape_9_" fill="url(#Shape_18_)" d="M1737.5,384c-8.28,0-15.5-6.009-15.5-14.021c0.174-3.04,1.215-5.967,3-8.437
			v-19.024c0-6.913,5.596-12.521,12.5-12.521c6.899,0,12.5,5.605,12.5,12.521v19.024c1.78,2.47,2.821,5.396,3,8.437
			C1753,377.991,1745.78,384,1737.5,384z"/>
		<g id="Group_2_" transform="translate(1678.000000, 224.000000)" opacity="0.7">
			
				<linearGradient id="Shape_19_" gradientUnits="userSpaceOnUse" x1="-4378.7773" y1="652.0344" x2="-4378.7773" y2="651.0344" gradientTransform="matrix(40 0 0 -39 175171.0938 25429.3359)">
				<stop  offset="0" style="stop-color:#FFA3A3"/>
				<stop  offset="1" style="stop-color:#FFA569"/>
			</linearGradient>
			<path id="Shape_10_" fill="url(#Shape_19_)" d="M7,0h26c3.861,0,7,3.134,7,7v20.125c0,3.866-3.139,7-7,7h-6.479L20,39
				l-5.681-4.875H7c-3.866,0-7-3.134-7-7V7C0,3.134,3.134,0,7,0z"/>
			<polyline id="Shape_11_" fill="none" stroke="#FFFFFF" stroke-width="11" stroke-linecap="round" points="16,15 20.5,19 25,15 
							"/>
		</g>
		<g id="Group_3_" transform="translate(1456.000000, 0.000000)">
			
				<linearGradient id="Shape_20_" gradientUnits="userSpaceOnUse" x1="-3268.7771" y1="876.0339" x2="-3268.7771" y2="875.0339" gradientTransform="matrix(40 0 0 -39 130771.0781 34165.3359)">
				<stop  offset="0" style="stop-color:#FF9D9D"/>
				<stop  offset="1" style="stop-color:#FCA46A"/>
			</linearGradient>
			<path id="Shape_12_" fill="url(#Shape_20_)" d="M7,0h26c3.861,0,7,3.139,7,7v20.125c0,3.866-3.139,7-7,7h-6.479L20,39
				l-5.681-4.875H7c-3.866,0-7-3.134-7-7V7C0,3.135,3.134,0,7,0z"/>
			<polyline id="Shape_13_" fill="none" stroke="#FFFFFF" stroke-width="11" stroke-linecap="round" points="16,15 20.5,19 25,15 
							"/>
		</g>
		<g id="Group_4_" transform="translate(1163.000000, 116.000000)" opacity="0.5">
			
				<linearGradient id="Shape_21_" gradientUnits="userSpaceOnUse" x1="-1803.7771" y1="760.0344" x2="-1803.7771" y2="759.0344" gradientTransform="matrix(40 0 0 -39 72171.0859 29641.3359)">
				<stop  offset="0" style="stop-color:#FFA3A3"/>
				<stop  offset="1" style="stop-color:#FFA569"/>
			</linearGradient>
			<path id="Shape_14_" fill="url(#Shape_21_)" d="M7,0h26c3.861,0,7,3.134,7,7v20.125c0,3.866-3.139,7-7,7h-6.479L20,39
				l-5.681-4.875H7c-3.866,0-7-3.134-7-7V7C0,3.134,3.134,0,7,0z"/>
			<polyline id="Shape_15_" fill="none" stroke="#FFFFFF" stroke-width="11" stroke-linecap="round" points="16,15 20.5,19 25,15 
							"/>
		</g>
	</g>
</g>
<polygon fill="#E3F4FF" points="1.497,1256 1920.498,1256 1920.498,2016.743 1.497,2207.5 "/>
<rect x="1.497" y="577.799" fill="#E3F4FF" width="1918.503" height="954.095"/>
</svg>
